arm28_optimize_states
version=1
nRows=27
nColumns=21
inDegrees=yes

# SIMM Motion File Header:
name arm28_optimize_states
datacolumns 21
datarows 27
otherdata 1
range 0.28591883 0.40879267
endheader
time	r_shoulder_elev	r_elbow_flex	r_shoulder_elev_u	r_elbow_flex_u	TRIlong.activation	TRIlong.fiber_length	TRIlat.activation	TRIlat.fiber_length	TRImed.activation	TRImed.fiber_length	BIClong.activation	BIClong.fiber_length	BICshort.activation	BICshort.fiber_length	BRA.activation	BRA.fiber_length	DeltAnt.activation	DeltAnt.fiber_length	DeltPost.activation	DeltPost.fiber_length
      0.28591883	     10.10329966	     -5.21468458	     -0.35956783	    -47.97268291	      0.01090493	      0.14164027	      0.01090493	      0.06904669	      0.01090493	      0.06408969	      0.01090493	      0.14337057	      0.01090493	      0.14825574	      0.01090493	      0.08666692	      0.01090493	      0.15608030	      0.01090493	      0.11713256
      0.28878521	     10.10202955	     -5.35241200	     -0.52478970	    -48.12801909	      0.01087206	      0.14160227	      0.01087206	      0.06900831	      0.01087206	      0.06405148	      0.01087206	      0.14338514	      0.01087206	      0.14827106	      0.01087206	      0.08665693	      0.01087206	      0.15608120	      0.01087206	      0.11713212
      0.29260695	     10.09962673	     -5.53676515	     -0.73031783	    -48.34952973	      0.01083009	      0.14155129	      0.01083009	      0.06895730	      0.01083009	      0.06400069	      0.01083009	      0.14340452	      0.01083009	      0.14829115	      0.01083009	      0.08664338	      0.01083009	      0.15608286	      0.01083009	      0.11713087
      0.29803988	     10.09491580	     -5.80033419	     -0.99994589	    -48.67879510	      0.01077388	      0.14147827	      0.01077388	      0.06888509	      0.01077388	      0.06392878	      0.01077388	      0.14343199	      0.01077388	      0.14831912	      0.01077388	      0.08662363	      0.01077388	      0.15608604	      0.01077388	      0.11712803
      0.30384129	     10.08834093	     -6.08378654	     -1.26301060	    -49.03965953	      0.01071807	      0.14139972	      0.01071807	      0.06880847	      0.01071807	      0.06385250	      0.01071807	      0.14346114	      0.01071807	      0.14834821	      0.01071807	      0.08660188	      0.01071807	      0.15609041	      0.01071807	      0.11712377
      0.30964271	     10.08030697	     -6.36934404	     -1.50297932	    -49.40443614	      0.01066629	      0.14132071	      0.01066629	      0.06873237	      0.01066629	      0.06377677	      0.01066629	      0.14349006	      0.01066629	      0.14837652	      0.01066629	      0.08657944	      0.01066629	      0.15609568	      0.01066629	      0.11711831
      0.31360113	     10.07405301	     -6.56539748	     -1.65539294	    -49.65143774	      0.01063312	      0.14126663	      0.01063312	      0.06868082	      0.01063312	      0.06372548	      0.01063312	      0.14350963	      0.01063312	      0.14839538	      0.01063312	      0.08656372	      0.01063312	      0.15609976	      0.01063312	      0.11711400
      0.31857181	     10.06537535	     -6.81296548	     -1.83390655	    -49.95884618	      0.01059380	      0.14119853	      0.01059380	      0.06861642	      0.01059380	      0.06366140	      0.01059380	      0.14353401	      0.01059380	      0.14841855	      0.01059380	      0.08654353	      0.01059380	      0.15610540	      0.01059380	      0.11710789
      0.32355805	     10.05581178	     -7.06282899	     -2.00016891	    -50.26080197	      0.01055682	      0.14113014	      0.01055682	      0.06855233	      0.01055682	      0.06359763	      0.01055682	      0.14355820	      0.01055682	      0.14844121	      0.01055682	      0.08652276	      0.01055682	      0.15611158	      0.01055682	      0.11710108
      0.32854428	     10.04545037	     -7.31418013	     -2.15381769	    -50.55574847	      0.01052214	      0.14106175	      0.01052214	      0.06848879	      0.01052214	      0.06353442	      0.01052214	      0.14358212	      0.01052214	      0.14846329	      0.01052214	      0.08650148	      0.01052214	      0.15611826	      0.01052214	      0.11709362
      0.33300564	     10.03555278	     -7.54030025	     -2.28184908	    -50.81098875	      0.01049296	      0.14100063	      0.01049296	      0.06843244	      0.01049296	      0.06347838	      0.01049296	      0.14360325	      0.01049296	      0.14848253	      0.01049296	      0.08648198	      0.01049296	      0.15612462	      0.01049296	      0.11708645
      0.33839252	     10.02287095	     -7.81482006	     -2.42442957	    -51.10832761	      0.01045988	      0.14092699	      0.01045988	      0.06836506	      0.01045988	      0.06341134	      0.01045988	      0.14362841	      0.01045988	      0.14850512	      0.01045988	      0.08645790	      0.01045988	      0.15613275	      0.01045988	      0.11707718
      0.34252203	     10.01264752	     -8.02632564	     -2.52591748	    -51.32598924	      0.01043604	      0.14087077	      0.01043604	      0.06831400	      0.01043604	      0.06336059	      0.01043604	      0.14364740	      0.01043604	      0.14852196	      0.01043604	      0.08643901	      0.01043604	      0.15613929	      0.01043604	      0.11706970
      0.34767797	      9.99931804	     -8.29163462	     -2.64288772	    -51.58538463	      0.01040800	      0.14080086	      0.01040800	      0.06825091	      0.01040800	      0.06329784	      0.01040800	      0.14367074	      0.01040800	      0.14854239	      0.01040800	      0.08641494	      0.01040800	      0.15614781	      0.01040800	      0.11705987
      0.35204533	      9.98757322	     -8.51738309	     -2.73455170	    -51.79220729	      0.01038567	      0.14074201	      0.01038567	      0.06819818	      0.01038567	      0.06324543	      0.01038567	      0.14369016	      0.01038567	      0.14855916	      0.01038567	      0.08639411	      0.01038567	      0.15615530	      0.01038567	      0.11705120
      0.35739967	      9.97265143	     -8.79534039	     -2.83746271	    -52.02971815	      0.01035995	      0.14067036	      0.01035995	      0.06813438	      0.01035995	      0.06318198	      0.01035995	      0.14371351	      0.01035995	      0.14857907	      0.01035995	      0.08636805	      0.01035995	      0.15616480	      0.01035995	      0.11704011
      0.36152245	      9.96080071	     -9.01020012	     -2.91062960	    -52.19843186	      0.01034132	      0.14061566	      0.01034132	      0.06808602	      0.01034132	      0.06313394	      0.01034132	      0.14373113	      0.01034132	      0.14859389	      0.01034132	      0.08634756	      0.01034132	      0.15617234	      0.01034132	      0.11703130
      0.36662211	      9.94574280	     -9.27689256	     -2.99346581	    -52.39049351	      0.01031961	      0.14054861	      0.01031961	      0.06802706	      0.01031961	      0.06307533	      0.01031961	      0.14375247	      0.01031961	      0.14861160	      0.01031961	      0.08632176	      0.01031961	      0.15618192	      0.01031961	      0.11702006
      0.37095034	      9.93264471	     -9.50397366	     -3.05818416	    -52.53686916	      0.01030227	      0.14049231	      0.01030227	      0.06797789	      0.01030227	      0.06302649	      0.01030227	      0.14377016	      0.01030227	      0.14862609	      0.01030227	      0.08629944	      0.01030227	      0.15619024	      0.01030227	      0.11701028
      0.37622086	      9.91633450	     -9.78129688	     -3.12971229	    -52.69494420	      0.01028242	      0.14042457	      0.01028242	      0.06791907	      0.01028242	      0.06296802	      0.01028242	      0.14379117	      0.01028242	      0.14864305	      0.01028242	      0.08627177	      0.01028242	      0.15620058	      0.01028242	      0.11699804
      0.38045544	      9.90296841	    -10.00467438	     -3.18252143	    -52.80355097	      0.01026743	      0.14037088	      0.01026743	      0.06787278	      0.01026743	      0.06292205	      0.01026743	      0.14380761	      0.01026743	      0.14865613	      0.01026743	      0.08624912	      0.01026743	      0.15620906	      0.01026743	      0.11698802
      0.38469003	      9.88938822	    -10.22847821	     -3.23072819	    -52.89651293	      0.01025323	      0.14031787	      0.01025323	      0.06782732	      0.01025323	      0.06287690	      0.01025323	      0.14382365	      0.01025323	      0.14866871	      0.01025323	      0.08622614	      0.01025323	      0.15621766	      0.01025323	      0.11697780
      0.38988433	      9.87246426	    -10.50348484	     -3.28491991	    -52.98621288	      0.01023683	      0.14025383	      0.01023683	      0.06777275	      0.01023683	      0.06282267	      0.01023683	      0.14384276	      0.01023683	      0.14868346	      0.01023683	      0.08619750	      0.01023683	      0.15622838	      0.01023683	      0.11696506
      0.39507864	      9.85527335	    -10.77888855	     -3.33314141	    -53.05015798	      0.01022150	      0.14019100	      0.01022150	      0.06771961	      0.01022150	      0.06276991	      0.01022150	      0.14386123	      0.01022150	      0.14869745	      0.01022150	      0.08616836	      0.01022150	      0.15623926	      0.01022150	      0.11695207
      0.39933067	      9.84102246	    -11.00453126	     -3.36960053	    -53.08020172	      0.01020970	      0.14014052	      0.01020970	      0.06767723	      0.01020970	      0.06272785	      0.01020970	      0.14387585	      0.01020970	      0.14870834	      0.01020970	      0.08614413	      0.01020970	      0.15624827	      0.01020970	      0.11694134
      0.40358271	      9.82662387	    -11.23026199	     -3.40242812	    -53.09194274	      0.01019852	      0.14009092	      0.01019852	      0.06763585	      0.01019852	      0.06268676	      0.01019852	      0.14389003	      0.01019852	      0.14871870	      0.01019852	      0.08611959	      0.01019852	      0.15625737	      0.01019852	      0.11693044
      0.40879267	      9.80879995	    -11.50684701	     -3.43947126	    -53.07750521	      0.01018563	      0.14003141	      0.01018563	      0.06758654	      0.01018563	      0.06263779	      0.01018563	      0.14390678	      0.01018563	      0.14873069	      0.01018563	      0.08608913	      0.01018563	      0.15626863	      0.01018563	      0.11691696
